<svg width="2560" height="1440" viewBox="0 0 2560 1440" fill="none" xmlns="http://www.w3.org/2000/svg">
<g id="aula00" clip-path="url(#clip0)">
<g id="Vector 1109" filter="url(#filter0_f)">
<path d="M1569.29 607.406C1844.06 696.18 2145.39 907.257 2248.63 899.308C2433.45 885.076 2309.87 396.765 2084.12 258.015C1872.29 127.817 594.679 203.375 965.949 478.168C1163.47 624.363 1335.46 531.856 1569.29 607.406Z" fill="url(#paint0_linear)" fill-opacity="0.2"/>
</g>
<g id="Vector 1110" filter="url(#filter1_f)">
<path d="M1969.98 1007.86C1058.98 982.753 778.415 534.508 461.588 547.267C63.315 563.306 137.523 983.751 461.588 1143.95C843.572 1332.78 2587.34 1024.87 1969.98 1007.86Z" fill="url(#paint1_linear)" fill-opacity="0.3"/>
</g>
<rect id="square5" x="2007.27" y="472" width="343.446" height="343.446" rx="2" transform="rotate(46.2939 2007.27 472)" fill="url(#paint2_linear)"/>
<rect id="square6" x="596.724" y="700.12" width="48" height="48" rx="2" transform="rotate(124.402 596.724 700.12)" fill="url(#paint3_linear)"/>
<rect id="square3" x="1189.11" y="464.373" width="16" height="16" rx="2" transform="rotate(-160.794 1189.11 464.373)" fill="url(#paint4_linear)"/>
<rect id="square" x="1329.06" y="844" width="16" height="16" rx="2" transform="rotate(22.2604 1329.06 844)" fill="url(#paint5_linear)"/>
<rect id="square_2" x="1418.81" y="471.869" width="16" height="16" rx="2" transform="rotate(-157.74 1418.81 471.869)" fill="url(#paint6_linear)"/>
<rect id="square2" x="723" y="1091.33" width="178.544" height="178.544" rx="2" transform="rotate(-30.3936 723 1091.33)" fill="url(#paint7_linear)"/>
<rect id="square1" x="1022.05" y="228" width="72" height="72" rx="2" transform="rotate(46.2939 1022.05 228)" fill="url(#paint8_linear)"/>
<path id="Vector 1112" d="M-93.3231 1000.73C205.732 833.531 354.56 836.054 636.307 926.467C873.371 1002.54 1099.86 974.685 1327.91 856.074" stroke="url(#paint9_linear)" stroke-dasharray="2 2"/>
<path id="Vector 1113" d="M2840.62 314.61C2541.57 481.81 2392.74 479.287 2110.99 388.874C1873.93 312.799 1647.44 340.656 1419.39 459.267" stroke="url(#paint10_linear)" stroke-dasharray="2 2"/>
<rect id="square1min" x="2292.84" y="1208" width="24" height="24" rx="2" transform="rotate(11.6365 2292.84 1208)" fill="url(#paint11_linear)"/>
<rect id="square2min" x="1848.84" y="228" width="24" height="24" rx="2" transform="rotate(11.6365 1848.84 228)" fill="url(#paint12_linear)"/>
<rect id="square3min" x="1416.84" y="1024" width="24" height="24" rx="2" transform="rotate(11.6365 1416.84 1024)" fill="url(#paint13_linear)"/>
<rect id="square4min" x="620.841" y="369" width="24" height="24" rx="2" transform="rotate(11.6365 620.841 369)" fill="url(#paint14_linear)"/>
<rect id="square5min" x="1532.84" y="645" width="24" height="24" rx="2" transform="rotate(11.6365 1532.84 645)" fill="url(#paint15_linear)"/>
</g>
<defs>
<filter id="filter0_f" x="580" y="-266" width="2090.73" height="1702.83" filterUnits="userSpaceOnUse" color-interpolation-filters="sRGB">
<feFlood flood-opacity="0" result="BackgroundImageFix"/>
<feBlend mode="normal" in="SourceGraphic" in2="BackgroundImageFix" result="shape"/>
<feGaussianBlur stdDeviation="150" result="effect1_foregroundBlur"/>
</filter>
<filter id="filter1_f" x="-160" y="197" width="2611" height="1358" filterUnits="userSpaceOnUse" color-interpolation-filters="sRGB">
<feFlood flood-opacity="0" result="BackgroundImageFix"/>
<feBlend mode="normal" in="SourceGraphic" in2="BackgroundImageFix" result="shape"/>
<feGaussianBlur stdDeviation="175" result="effect1_foregroundBlur"/>
</filter>
<linearGradient id="paint0_linear" x1="1045.77" y1="1136.83" x2="1571.86" y2="-212.785" gradientUnits="userSpaceOnUse">
<stop stop-color="#2DC7ED"/>
<stop offset="1" stop-color="#538BF0" stop-opacity="0"/>
</linearGradient>
<linearGradient id="paint1_linear" x1="2101" y1="547" x2="1695.9" y2="1723.51" gradientUnits="userSpaceOnUse">
<stop stop-color="#2DC7ED"/>
<stop offset="1" stop-color="#538BF0" stop-opacity="0"/>
</linearGradient>
<linearGradient id="paint2_linear" x1="2350.72" y1="472" x2="2007.27" y2="815.446" gradientUnits="userSpaceOnUse">
<stop stop-color="#2DC7ED"/>
<stop offset="1" stop-color="#538BF0" stop-opacity="0"/>
</linearGradient>
<linearGradient id="paint3_linear" x1="644.724" y1="700.12" x2="596.724" y2="748.12" gradientUnits="userSpaceOnUse">
<stop stop-color="#2DC7ED"/>
<stop offset="1" stop-color="#538BF0" stop-opacity="0"/>
</linearGradient>
<linearGradient id="paint4_linear" x1="1205.11" y1="464.373" x2="1189.11" y2="480.373" gradientUnits="userSpaceOnUse">
<stop stop-color="#2DC7ED"/>
<stop offset="1" stop-color="#538BF0" stop-opacity="0"/>
</linearGradient>
<linearGradient id="paint5_linear" x1="1345.06" y1="844" x2="1329.06" y2="860" gradientUnits="userSpaceOnUse">
<stop stop-color="#2DC7ED"/>
<stop offset="1" stop-color="#538BF0" stop-opacity="0"/>
</linearGradient>
<linearGradient id="paint6_linear" x1="1434.81" y1="471.869" x2="1418.81" y2="487.869" gradientUnits="userSpaceOnUse">
<stop stop-color="#2DC7ED"/>
<stop offset="1" stop-color="#538BF0" stop-opacity="0"/>
</linearGradient>
<linearGradient id="paint7_linear" x1="901.544" y1="1091.33" x2="723" y2="1269.88" gradientUnits="userSpaceOnUse">
<stop stop-color="#2DC7ED"/>
<stop offset="1" stop-color="#538BF0" stop-opacity="0"/>
</linearGradient>
<linearGradient id="paint8_linear" x1="1094.05" y1="228" x2="1022.05" y2="300" gradientUnits="userSpaceOnUse">
<stop stop-color="#2DC7ED"/>
<stop offset="1" stop-color="#538BF0" stop-opacity="0"/>
</linearGradient>
<linearGradient id="paint9_linear" x1="1326.86" y1="845.763" x2="-94.3726" y2="990.42" gradientUnits="userSpaceOnUse">
<stop stop-color="#2DC7ED"/>
<stop offset="1" stop-color="#538BF0" stop-opacity="0"/>
</linearGradient>
<linearGradient id="paint10_linear" x1="1420.44" y1="469.578" x2="2841.67" y2="324.921" gradientUnits="userSpaceOnUse">
<stop stop-color="#2DC7ED"/>
<stop offset="1" stop-color="#538BF0" stop-opacity="0"/>
</linearGradient>
<linearGradient id="paint11_linear" x1="2316.84" y1="1208" x2="2292.84" y2="1232" gradientUnits="userSpaceOnUse">
<stop stop-color="#2DC7ED"/>
<stop offset="1" stop-color="#538BF0" stop-opacity="0"/>
</linearGradient>
<linearGradient id="paint12_linear" x1="1872.84" y1="228" x2="1848.84" y2="252" gradientUnits="userSpaceOnUse">
<stop stop-color="#2DC7ED"/>
<stop offset="1" stop-color="#538BF0" stop-opacity="0"/>
</linearGradient>
<linearGradient id="paint13_linear" x1="1440.84" y1="1024" x2="1416.84" y2="1048" gradientUnits="userSpaceOnUse">
<stop stop-color="#2DC7ED"/>
<stop offset="1" stop-color="#538BF0" stop-opacity="0"/>
</linearGradient>
<linearGradient id="paint14_linear" x1="644.841" y1="369" x2="620.841" y2="393" gradientUnits="userSpaceOnUse">
<stop stop-color="#2DC7ED"/>
<stop offset="1" stop-color="#538BF0" stop-opacity="0"/>
</linearGradient>
<linearGradient id="paint15_linear" x1="1556.84" y1="645" x2="1532.84" y2="669" gradientUnits="userSpaceOnUse">
<stop stop-color="#2DC7ED"/>
<stop offset="1" stop-color="#538BF0" stop-opacity="0"/>
</linearGradient>
<clipPath id="clip0">
<rect width="2560" height="1440" fill="white"/>
</clipPath>
</defs>
</svg>
